<svg xmlns="http://www.w3.org/2000/svg" width="60" height="60" viewBox="0 0 60 60">
    <g fill="none" fill-rule="evenodd">
        <g fill="#FFF" fill-rule="nonzero">
            <path d="M708.53 792.275c3.535-1.464 7.412-2.275 11.47-2.275 8.281 0 15.786 3.36 21.21 8.79 2.765 2.763 4.991 6.068 6.515 9.74 1.464 3.535 2.275 7.412 2.275 11.47 0 8.281-3.36 15.786-8.79 21.21-2.763 2.765-6.068 4.991-9.74 6.515-3.535 1.464-7.412 2.275-11.47 2.275-4.058 0-7.935-.81-11.47-2.275-3.676-1.524-6.977-3.75-9.74-6.514-2.765-2.764-4.996-6.065-6.515-9.741-1.464-3.535-2.275-7.412-2.275-11.47 0-4.058.81-7.935 2.275-11.47 1.519-3.676 3.75-6.977 6.514-9.74 2.759-2.765 6.065-4.996 9.741-6.515zm5.884 20.738c-1.21-1.23-1.196-3.213.04-4.42 1.23-1.21 3.212-1.196 4.418.04l9.116 9.263c1.197 1.22 1.197 3.168 0 4.384l-8.94 9.087c-1.211 1.23-3.189 1.245-4.42.04-1.23-1.212-1.244-3.19-.038-4.42l6.787-6.9-6.963-7.074zm-3.486-14.932c-2.896 1.201-5.508 2.964-7.696 5.151-2.187 2.188-3.95 4.8-5.15 7.696-1.158 2.788-1.793 5.854-1.793 9.072 0 3.218.64 6.28 1.792 9.072 1.201 2.896 2.964 5.508 5.151 7.696 2.188 2.187 4.8 3.95 7.696 5.15 2.793 1.158 5.854 1.793 9.072 1.793 3.218 0 6.28-.64 9.072-1.792 2.896-1.201 5.508-2.964 7.696-5.151 2.187-2.188 3.95-4.795 5.15-7.696 1.158-2.788 1.793-5.854 1.793-9.072 0-3.218-.64-6.28-1.792-9.072-1.201-2.896-2.964-5.508-5.151-7.696-2.188-2.187-4.8-3.95-7.696-5.15-2.788-1.158-5.854-1.793-9.072-1.793-3.218 0-6.28.64-9.072 1.792z" transform="translate(-690 -790) rotate(90 720 820)"/>
        </g>
    </g>
</svg>
