<svg xmlns="http://www.w3.org/2000/svg" width="60" height="60" viewBox="0 0 60 60">
    <g fill="none" fill-rule="evenodd">
        <g fill="#320F0B" fill-rule="nonzero">
            <path d="M1330 9555h.009c0 8.29 3.355 15.789 8.779 21.212 5.424 5.424 12.923 8.78 21.211 8.78v.008h.001v-.009c8.288 0 15.788-3.355 21.212-8.779 5.424-5.424 8.78-12.923 8.78-21.211h.008V9555h-.009c0-8.289-3.356-15.788-8.779-21.212-5.424-5.424-12.923-8.78-21.211-8.78V9525H1360v.009c-8.288 0-15.788 3.355-21.212 8.779-5.424 5.424-8.78 12.923-8.78 21.211H1330v.001zm20.742 5.01c-.958.931-2.49.91-3.422-.048-.933-.958-.911-2.491.047-3.423l10.996-10.663 1.688 1.735-1.69-1.743c.963-.933 2.499-.91 3.432.053.027.028.054.056.079.085l10.769 10.534c.958.931.98 2.464.048 3.422-.932.959-2.465.98-3.423.048l-9.223-9.02-9.301 9.02z" transform="translate(-1330 -9525)"/>
        </g>
    </g>
</svg>
